<?xml version="1.0" standalone="no"?>
<!DOCTYPE svg PUBLIC "-//W3C//DTD SVG 20010904//EN"
 "http://www.w3.org/TR/2001/REC-SVG-20010904/DTD/svg10.dtd">
<svg version="1.0" xmlns="http://www.w3.org/2000/svg"
 width="1024.000000pt" height="1024.000000pt" viewBox="0 0 1024.000000 1024.000000"
 preserveAspectRatio="xMidYMid meet">

<g transform="translate(0.000000,1024.000000) scale(0.100000,-0.100000)"
fill="#000000" stroke="none">
<path d="M0 5120 l0 -5120 5120 0 5120 0 0 5120 0 5120 -5120 0 -5120 0 0
-5120z m3718 1005 c94 -28 186 -119 199 -198 l6 -37 -74 0 c-72 1 -75 2 -94
32 -36 57 -68 73 -153 76 -59 2 -85 -1 -111 -15 -78 -41 -91 -113 -28 -152 18
-10 79 -29 137 -41 189 -40 263 -81 301 -165 25 -54 25 -157 0 -211 -43 -94
-164 -154 -310 -154 -169 0 -301 78 -330 196 -19 75 -20 74 63 74 70 0 74 -1
80 -24 8 -34 69 -83 118 -97 56 -15 158 -6 196 16 33 20 52 53 52 91 0 63 -47
92 -195 122 -56 11 -124 30 -153 42 -71 31 -127 93 -141 159 -27 125 42 237
174 283 63 22 194 23 263 3z m576 -175 l117 -179 120 181 121 181 60 -7 c34
-3 74 -6 91 -6 28 0 29 -1 14 -17 -8 -10 -85 -118 -171 -241 l-156 -224 0
-179 0 -179 -75 0 -75 0 0 174 0 174 -170 244 -170 243 37 6 c21 3 61 7 89 8
l52 1 116 -180z m2749 168 c3 -7 78 -193 167 -413 89 -220 164 -406 167 -412
4 -10 -16 -13 -80 -13 l-84 0 -35 93 -35 92 -190 3 -190 2 -34 -92 -34 -93
-84 -3 c-45 -2 -81 1 -79 5 1 4 72 181 156 393 85 212 160 400 167 418 l14 32
84 0 c58 0 87 -4 90 -12z m711 -133 l98 -145 98 142 97 143 92 1 c50 1 91 -1
91 -4 0 -3 -6 -13 -14 -21 -22 -25 -258 -363 -263 -378 -3 -7 61 -107 141
-223 80 -115 146 -212 146 -215 0 -3 -40 -5 -89 -5 l-89 0 -103 155 c-57 85
-107 154 -110 155 -3 0 -52 -70 -110 -155 l-104 -155 -88 0 -89 0 64 93 c36
50 103 149 151 218 l86 125 -140 198 c-76 108 -139 199 -139 201 0 7 45 12
110 13 l65 2 99 -145z m-2507 -25 c63 -85 159 -217 214 -293 l99 -139 0 296 0
296 80 0 80 0 0 -420 0 -420 -77 0 -78 1 -210 290 c-115 160 -212 292 -215
294 -3 2 -4 -129 -2 -291 l3 -294 -76 0 -75 0 0 420 0 421 72 -3 71 -3 114
-155z m1323 85 l0 -75 -140 0 -140 0 0 -345 0 -345 -75 0 -75 0 0 345 0 345
-140 0 -140 0 0 75 0 75 355 0 355 0 0 -75z m-2862 -1065 c64 -28 138 -106
148 -156 3 -19 5 -37 3 -39 -2 -2 -32 -5 -67 -6 -61 -2 -64 -2 -82 29 -38 62
-150 90 -235 58 -53 -21 -75 -48 -75 -93 0 -47 36 -66 196 -103 202 -48 261
-96 271 -224 13 -161 -88 -255 -284 -264 -109 -5 -169 8 -234 49 -60 38 -100
96 -107 154 l-5 45 66 0 67 0 19 -39 c26 -49 76 -74 162 -79 52 -3 77 0 113
16 54 24 71 55 62 107 -9 46 -46 70 -146 91 -195 41 -264 77 -301 158 -56 123
11 257 153 308 72 26 201 20 276 -12z m833 0 c83 -26 154 -80 206 -158 56 -82
68 -127 68 -242 0 -85 -4 -102 -32 -161 -73 -155 -205 -239 -378 -239 -173 0
-305 83 -378 238 -30 62 -32 75 -32 172 0 97 2 110 32 172 74 156 199 237 369
238 55 0 103 -7 145 -20z m971 -12 c73 -34 140 -97 173 -161 37 -75 36 -77
-45 -77 l-69 0 -58 59 c-43 44 -69 62 -103 71 -100 27 -208 -15 -267 -104 -42
-62 -56 -116 -50 -191 11 -139 106 -241 237 -252 79 -7 155 28 202 93 l32 45
73 -2 c86 -2 88 -7 44 -84 -37 -65 -98 -120 -170 -153 -49 -23 -69 -27 -161
-26 -86 0 -115 4 -162 23 -84 33 -160 106 -205 199 -36 73 -38 80 -38 176 1
82 5 112 24 159 44 110 145 208 250 242 75 24 222 15 293 -17z m498 -378 l0
-400 -75 0 -75 0 0 400 0 400 75 0 75 0 0 -400z m745 330 l0 -70 -202 0 -203
0 0 -95 0 -95 184 0 184 0 4 -70 3 -70 -188 0 -188 0 3 -97 3 -98 203 -3 202
-2 0 -65 0 -65 -280 0 -279 0 -1 400 0 400 277 0 278 0 0 -70z m785 0 l0 -70
-130 0 -130 0 0 -330 0 -330 -75 0 -75 0 0 330 0 330 -125 0 -125 0 0 70 0 70
330 0 330 0 0 -70z m293 -45 c37 -60 83 -133 100 -162 l32 -51 103 164 104
164 74 0 c41 0 74 -4 74 -8 0 -10 -179 -302 -240 -391 l-40 -60 0 -170 0 -171
-75 0 -75 0 0 168 0 167 -37 55 c-33 49 -164 253 -237 368 l-27 43 88 -3 88
-3 68 -110z"/>
<path d="M6947 5933 c-7 -11 -127 -312 -127 -318 0 -3 61 -5 136 -5 105 0 135
3 131 13 -23 59 -130 313 -132 315 -2 2 -5 0 -8 -5z"/>
<path d="M4316 4854 c-64 -20 -137 -93 -159 -159 -39 -113 -11 -233 73 -308
57 -52 97 -67 178 -67 154 0 259 107 261 266 2 156 -95 266 -245 279 -38 3
-76 -1 -108 -11z"/>
</g>
</svg>
